<?xml version="1.0" standalone="no"?>
<!DOCTYPE svg PUBLIC "-//W3C//DTD SVG 20010904//EN"
 "http://www.w3.org/TR/2001/REC-SVG-20010904/DTD/svg10.dtd">
<svg version="1.0" xmlns="http://www.w3.org/2000/svg"
 width="1000.000000pt" height="667.000000pt" viewBox="0 0 1000.000000 667.000000"
 preserveAspectRatio="xMidYMid meet">

<g transform="translate(0.000000,667.000000) scale(0.100000,-0.100000)"
fill="#000000" stroke="none">
<path d="M0 3335 l0 -3335 5000 0 5000 0 0 3335 0 3335 -5000 0 -5000 0 0
-3335z m7840 1060 c7 -4 16 -2 22 6 7 10 8 7 4 -11 -3 -14 -6 -41 -6 -61 0
-40 -2 -41 -107 -54 -46 -6 -48 -4 -33 25 7 13 7 21 0 25 -5 3 -10 21 -10 39
0 29 3 33 24 31 13 -2 29 1 36 5 15 9 51 7 70 -5z m-149 -27 c1 -13 1 -27 0
-31 -1 -4 -2 -19 -3 -32 -1 -14 -3 -25 -4 -25 -1 0 -19 7 -39 16 -35 14 -39
14 -47 0 -5 -9 -14 -16 -20 -16 -22 0 -48 33 -48 60 0 25 5 29 48 38 26 5 62
10 80 11 27 1 32 -3 33 -21z m169 -157 c0 -28 -4 -52 -9 -55 -11 -7 -21 55
-14 83 10 38 23 22 23 -28z m-90 33 c0 -15 -22 -44 -31 -39 -9 6 -13 -7 -10
-31 1 -13 -95 -58 -107 -50 -4 3 -8 28 -7 57 l0 52 59 4 c33 2 62 6 65 8 6 7
31 6 31 -1z m4 -70 c7 -18 0 -34 -15 -34 -5 0 -9 11 -9 25 0 28 15 34 24 9z
m-189 -40 c0 -12 -8 -20 -22 -22 -17 -3 -23 2 -23 16 0 20 16 33 35 28 6 -2
10 -11 10 -22z m285 -22 c20 -16 21 -19 6 -31 -9 -8 -16 -28 -16 -47 0 -25 -5
-34 -17 -35 -10 -1 -31 -2 -48 -3 -16 -1 -40 -5 -52 -9 -22 -8 -23 -6 -23 57
l0 65 38 6 c20 4 44 8 52 10 31 6 38 5 60 -13z m-166 -28 c3 -9 6 -35 6 -59 0
-48 10 -43 -122 -61 l-48 -6 0 65 c0 75 -2 73 101 76 44 1 58 -3 63 -15z m186
-118 c0 -14 -4 -28 -10 -31 -5 -3 -8 -22 -7 -43 1 -28 -2 -37 -15 -40 -16 -3
-18 5 -18 62 0 65 2 69 43 75 4 0 7 -10 7 -23z m-65 -40 c8 -65 3 -76 -36 -76
-21 0 -29 5 -29 18 -1 13 -4 11 -15 -8 -13 -24 -14 -21 -15 44 l0 68 30 -4
c17 -3 33 -1 36 4 13 20 23 4 29 -46z m-121 3 c16 -81 5 -98 -61 -99 -21 0
-23 4 -23 58 0 32 3 62 7 65 3 4 21 7 38 7 28 0 33 -4 39 -31z m-126 -39 c-4
-55 -12 -80 -22 -69 -3 2 -8 32 -12 67 -6 60 -6 62 16 62 21 0 22 -3 18 -60z
m300 -77 l10 -28 3 30 c1 17 5 1 9 -35 3 -36 6 -66 6 -67 -1 -1 -13 -4 -27 -8
-31 -8 -39 10 -39 88 0 54 22 65 38 20z m-270 -75 l4 -58 -31 0 -31 0 0 61 c0
60 0 60 27 57 25 -3 27 -7 31 -60z m38 -3 c3 -44 -8 -60 -20 -29 -8 21 -8 69
1 77 11 12 17 -2 19 -48z m174 -10 c-10 -18 -16 -22 -21 -13 -4 7 -3 15 3 19
6 4 7 12 3 18 -4 7 -4 20 0 29 6 15 8 14 18 -6 7 -16 7 -29 -3 -47z m63 -47
c24 -11 27 -19 27 -60 0 -46 -1 -47 -37 -57 -21 -5 -59 -10 -85 -10 l-48 0 0
52 c0 50 1 52 38 69 46 20 71 21 105 6z m-159 -39 c9 -44 8 -87 -2 -93 -5 -3
-42 -6 -83 -8 l-74 -3 -3 43 c-3 41 -2 42 21 37 19 -5 25 -2 29 13 4 12 20 23
44 30 59 15 61 14 68 -19z m190 -126 c3 -21 6 -53 6 -70 0 -30 -3 -33 -29 -33
-25 0 -29 4 -35 38 -13 82 -7 99 35 101 11 1 18 -11 23 -36z m-72 -30 c2 -32
2 -63 0 -70 -2 -7 -22 -14 -45 -16 l-42 -4 48 -1 47 -2 0 -69 0 -69 -97 -7
c-115 -9 -126 -2 -121 80 l3 50 55 3 55 3 -3 74 c-4 81 -5 80 70 84 25 1 26
-1 30 -56z m-114 -20 l-3 -68 -48 -3 -48 -3 3 63 c3 66 11 74 76 77 22 1 23
-2 20 -66z m-108 -15 c0 -31 -4 -38 -20 -38 -11 0 -20 -4 -20 -10 0 -5 -4 -10
-10 -10 -6 0 -10 26 -10 59 0 49 3 60 18 64 25 5 42 -21 42 -65z m300 -118 l0
-70 -30 0 -30 0 0 64 c0 65 5 74 43 75 15 1 17 -9 17 -69z m-300 -25 c0 -63
-1 -65 -25 -65 -14 0 -25 1 -26 3 0 1 -3 30 -6 65 l-5 62 31 0 31 0 0 -65z
m304 -77 c3 -13 6 -44 6 -69 l0 -46 -61 -7 c-124 -13 -119 -15 -119 58 l0 65
48 6 c26 3 54 8 62 9 42 9 58 5 64 -16z m-186 -66 c3 -72 7 -69 -95 -75 l-73
-4 0 68 c0 66 1 68 28 72 15 2 52 4 82 3 l55 -1 3 -63z m185 -69 c3 -5 8 -72
12 -150 l7 -143 -31 0 c-16 0 -33 5 -37 11 -5 8 -8 8 -13 0 -11 -17 -147 -25
-182 -11 -27 12 -29 16 -29 71 l0 59 38 0 c20 0 67 3 105 7 l67 6 2 -54 2 -54
3 53 c4 45 7 52 26 53 l22 2 -22 4 c-21 4 -23 10 -23 73 0 57 3 69 18 73 28 7
31 7 35 0z m-179 -74 c3 -34 3 -65 0 -70 -3 -5 -24 -9 -48 -9 l-43 0 -10 48
-10 47 -2 -46 c-1 -39 -5 -48 -23 -52 -33 -9 -38 -1 -38 69 l0 64 30 0 c21 0
30 -5 31 -17 1 -16 2 -16 6 -1 4 17 25 24 74 27 25 1 26 -2 33 -60z m73 49
c37 -17 40 -22 39 -71 l-1 -42 -47 -3 -48 -3 0 34 c0 19 -3 49 -6 66 -6 27 -4
31 14 31 12 0 34 -6 49 -12z m-1790 -44 c-3 -3 -12 -4 -19 -1 -8 3 -5 6 6 6
11 1 17 -2 13 -5z m-247 -14 c0 -5 -4 -10 -10 -10 -5 0 -10 5 -10 10 0 6 5 10
10 10 6 0 10 -4 10 -10z m1855 -145 c7 -63 4 -71 -30 -77 -25 -5 -25 -5 -25
63 0 66 1 69 24 69 21 0 24 -6 31 -55z m188 -106 c-5 -18 -33 -35 -33 -20 0 5
6 12 13 14 7 3 5 6 -5 6 -17 1 -23 -15 -19 -48 2 -7 -2 -10 -8 -6 -6 3 -11 21
-11 39 0 30 2 32 34 32 26 0 32 -3 29 -17z m-6323 -334 c0 -11 -31 -11 -39 -1
-9 10 -6 12 14 8 14 -2 25 -6 25 -7z m92 -40 c6 -28 5 -41 -3 -44 -8 -2 -7 -6
2 -12 11 -7 10 -9 -3 -9 -10 0 -18 -7 -18 -15 0 -8 -4 -15 -8 -15 -5 0 -6 27
-4 60 4 50 2 60 -12 60 -9 0 -16 5 -16 11 0 6 12 9 27 7 23 -2 29 -9 35 -43z
m15 -122 c-3 -10 -5 -4 -5 12 0 17 2 24 5 18 2 -7 2 -21 0 -30z m-37 -28 c0
-14 5 -25 10 -25 6 0 10 5 10 10 0 6 5 10 10 10 6 0 10 -22 10 -49 0 -62 -19
-79 -22 -19 -1 37 -2 38 -5 11 -5 -38 -13 -41 -31 -13 -8 13 -10 35 -6 60 7
44 24 55 24 15z m150 -50 c0 -30 -4 -55 -10 -55 -11 0 -14 69 -4 94 11 27 14
18 14 -39z m5565 -43 c-3 -3 -11 0 -18 7 -9 10 -8 11 6 5 10 -3 15 -9 12 -12z
m165 -32 c0 -5 -8 -10 -17 -10 -15 0 -16 2 -3 10 19 12 20 12 20 0z m-70 -54
c0 -3 -4 -8 -10 -11 -5 -3 -10 -1 -10 4 0 6 5 11 10 11 6 0 10 -2 10 -4z m35
-65 c-8 -13 -35 -15 -35 -2 0 5 8 11 18 13 21 5 26 2 17 -11z m-11 -98 c-2
-69 5 -80 48 -76 52 4 78 -5 78 -28 0 -19 -5 -21 -62 -18 -110 5 -210 0 -203
-11 4 -6 23 -7 45 -4 37 6 40 4 51 -22 6 -18 8 -55 4 -96 -8 -73 -15 -80 -70
-74 -28 3 -30 7 -35 52 -5 44 -7 46 -14 22 -9 -29 -42 -65 -52 -55 -4 3 -9 38
-12 77 l-5 71 34 -3 c29 -2 35 -8 40 -33 6 -27 7 -26 8 13 1 37 -2 42 -21 42
-37 0 -46 12 -48 60 -4 99 -4 100 35 100 28 0 35 4 35 20 0 18 7 20 73 20 l73
0 -2 -57z m96 47 c0 -7 6 -7 20 0 16 9 18 8 14 -5 -5 -11 -21 -15 -60 -15 -50
0 -64 7 -47 23 10 11 73 8 73 -3z m340 -4 c0 -8 -7 -17 -16 -20 -8 -3 -12 -10
-9 -16 3 -5 1 -18 -5 -27 -10 -17 -10 -16 -9 2 3 47 5 47 -116 43 -63 -2 -115
-2 -115 -1 0 1 -3 8 -6 17 -5 14 10 16 135 16 114 0 141 -3 141 -14z m45 4
c-3 -5 -12 -10 -18 -10 -7 0 -6 4 3 10 19 12 23 12 15 0z m245 -85 l0 -93 -62
4 c-35 2 -94 5 -133 7 -57 2 -70 6 -73 20 -3 15 5 17 62 17 l65 0 -4 60 c-3
37 0 58 5 55 6 -4 10 -1 10 4 0 6 5 11 11 11 6 0 8 -7 5 -16 -5 -14 -4 -15 8
-5 7 6 21 9 30 5 9 -3 16 -1 16 6 0 6 -5 8 -12 4 -7 -4 -8 -3 -4 4 4 6 22 11
41 10 l35 -1 0 -92z m-195 75 c-3 -5 -12 -10 -18 -10 -7 0 -6 4 3 10 19 12 23
12 15 0z m390 -32 c2 -2 5 -37 6 -78 2 -68 1 -75 -18 -78 -15 -2 -28 13 -61
77 -23 44 -42 81 -42 83 0 4 111 1 115 -4z m-661 -19 c-3 -5 -10 -7 -15 -3 -5
3 -7 10 -3 15 3 5 10 7 15 3 5 -3 7 -10 3 -15z m79 -60 c5 -4 30 -7 54 -7 52
-1 56 -3 48 -25 -5 -13 -30 -15 -146 -16 -133 -2 -139 -1 -139 19 0 11 6 20
13 21 6 0 42 1 79 2 60 2 68 4 69 22 0 15 2 16 6 5 3 -8 10 -18 16 -21z m1624
25 c-3 -3 -12 -4 -19 -1 -8 3 -5 6 6 6 11 1 17 -2 13 -5z m-53 -80 c4 -31 4
-59 2 -62 -10 -9 -36 28 -36 52 0 19 -6 26 -27 29 -25 4 -25 4 6 6 25 1 32 5
27 16 -3 9 0 15 8 15 9 0 16 -19 20 -56z m116 19 c0 -22 -2 -23 -15 -9 -8 8
-15 22 -15 30 0 10 6 13 15 10 8 -4 15 -17 15 -31z m-2948 -45 c-7 -7 -12 -8
-12 -2 0 14 12 26 19 19 2 -3 -1 -11 -7 -17z m1370 0 c3 -7 9 -8 19 -3 19 13
109 16 109 4 0 -5 -5 -9 -11 -9 -8 0 -9 -4 0 -13 6 -8 8 -17 4 -21 -4 -4 1 -4
11 0 16 6 17 4 11 -17 -4 -13 -12 -27 -18 -31 -7 -4 -6 -12 3 -23 12 -14 12
-18 -1 -26 -8 -5 -26 -9 -40 -9 -15 0 -32 -6 -38 -14 -13 -16 -52 -10 -64 11
-11 18 -47 16 -69 -4 -10 -9 -18 -12 -19 -7 -5 60 -21 90 -41 78 -4 -3 -5 1
-2 9 2 7 0 26 -6 41 -5 15 -8 32 -4 37 8 14 152 11 156 -3z m274 -55 c-4 -35
-9 -70 -12 -78 -10 -26 -24 -17 -24 16 0 19 -4 28 -11 24 -12 -8 -61 34 -54
46 3 4 1 10 -5 14 -5 3 -10 15 -10 25 0 17 7 19 61 17 l61 -2 -6 -62z m-518
47 c9 -5 29 -14 43 -19 24 -9 26 -14 28 -80 2 -65 1 -70 -18 -68 -12 1 -21 5
-21 10 0 5 -6 4 -14 -2 -9 -8 -16 -8 -20 -2 -4 5 -15 8 -26 6 -14 -3 -20 4
-25 24 -8 37 4 124 19 133 14 10 13 10 34 -2z m-478 -20 c0 -5 -4 -10 -9 -10
-6 0 -13 5 -16 10 -3 6 1 10 9 10 9 0 16 -4 16 -10z m-30 -41 c0 -7 -16 -8
-47 -3 -65 9 -67 14 -5 14 30 0 52 -4 52 -11z m67 5 c-3 -3 -12 -4 -19 -1 -8
3 -5 6 6 6 11 1 17 -2 13 -5z m-1912 -44 c127 -5 242 -10 258 -10 15 0 27 -5
27 -11 0 -12 -159 -8 -630 16 -41 2 -92 4 -112 4 -21 1 -38 6 -38 11 0 7 43 9
133 5 72 -3 236 -10 362 -15z m2262 -42 c-3 -7 -5 -2 -5 12 0 14 2 19 5 13 2
-7 2 -19 0 -25z m-2659 15 c-10 -2 -28 -2 -40 0 -13 2 -5 4 17 4 22 1 32 -1
23 -4z m190 -10 c-21 -2 -55 -2 -75 0 -21 2 -4 4 37 4 41 0 58 -2 38 -4z m270
-10 c-16 -2 -40 -2 -55 0 -16 2 -3 4 27 4 30 0 43 -2 28 -4z m80 0 c-10 -2
-26 -2 -35 0 -10 3 -2 5 17 5 19 0 27 -2 18 -5z m2939 -8 c0 -8 -4 -15 -9 -15
-10 0 -11 14 -1 23 9 10 10 9 10 -8z m-2769 -2 c-16 -2 -40 -2 -55 0 -16 2 -3
4 27 4 30 0 43 -2 28 -4z m205 -10 c-13 -2 -35 -2 -50 0 -16 2 -5 4 22 4 28 0
40 -2 28 -4z m72 -3 c3 -5 -3 -10 -14 -10 -11 0 -23 5 -26 10 -3 6 3 10 14 10
11 0 23 -4 26 -10z m-810 -18 c-3 -3 -11 0 -18 7 -9 10 -8 11 6 5 10 -3 15 -9
12 -12z m70 -3 c5 -5 -4 -9 -23 -9 -22 0 -32 5 -32 16 0 11 6 14 23 9 12 -4
26 -11 32 -16z m402 15 c-3 -3 -12 -4 -19 -1 -8 3 -5 6 6 6 11 1 17 -2 13 -5z
m533 -4 c0 -6 -32 -10 -75 -10 -43 0 -75 4 -75 10 0 6 32 10 75 10 43 0 75 -4
75 -10z m190 -10 c0 -17 6 -20 43 -18 l42 1 -37 4 c-25 3 -38 9 -38 19 0 11
15 13 83 8 89 -7 99 -10 77 -24 -13 -8 -12 -10 3 -10 9 0 17 7 17 15 0 12 16
15 85 15 63 0 84 -3 83 -12 -2 -7 -14 -16 -28 -19 -19 -5 -15 -7 18 -8 29 -1
41 3 40 12 -2 9 25 13 105 15 89 2 107 0 107 -12 0 -11 -14 -16 -47 -19 -43
-3 -42 -4 15 -5 49 -2 62 -5 62 -18 0 -13 -8 -15 -42 -11 -24 3 -69 9 -100 13
-32 3 -58 12 -58 18 0 8 -2 8 -8 0 -7 -12 -68 -18 -149 -15 -46 1 -58 17 -20
24 19 4 19 4 -5 6 -14 0 -28 -5 -30 -11 -3 -9 -35 -13 -111 -14 -59 0 -110 -4
-114 -7 -3 -4 3 -7 15 -7 33 0 69 -20 80 -46 11 -22 10 -23 -25 -18 -21 2 -40
9 -44 15 -5 8 -12 8 -27 0 -33 -18 -37 -13 -12 14 l23 25 -36 0 c-40 0 -50 16
-14 23 12 2 4 5 -19 6 -33 1 -43 5 -47 21 -3 11 -11 20 -17 20 -9 0 -10 -3 -1
-13 18 -22 2 -27 -81 -27 -63 0 -78 3 -78 15 0 12 14 15 65 15 51 0 63 3 59
14 -4 11 12 14 80 15 80 1 86 0 86 -19z m-1030 0 c0 -5 -16 -10 -36 -10 -21 0
-33 4 -29 10 3 6 19 10 36 10 16 0 29 -4 29 -10z m290 -16 c0 -14 -12 -15 -97
-9 -141 10 -150 24 -15 25 96 0 112 -2 112 -16z m260 6 c0 -5 -18 -10 -40 -10
-22 0 -40 5 -40 10 0 6 18 10 40 10 22 0 40 -4 40 -10z m60 -5 c0 -16 -35 -21
-44 -6 -8 12 4 21 26 21 10 0 18 -7 18 -15z m86 5 c19 0 34 -4 34 -10 0 -5
-25 -10 -55 -10 -51 0 -65 7 -48 24 4 3 13 4 21 1 7 -3 29 -5 48 -5z m1342 -6
c6 -2 12 -8 12 -13 0 -6 -48 -12 -117 -14 l-118 -3 128 -2 c70 -1 126 1 126 6
-4 25 7 28 134 25 72 -2 192 -6 265 -9 121 -6 132 -8 132 -25 0 -10 4 -19 9
-19 5 0 7 9 4 20 -5 19 0 20 101 20 l106 0 0 -25 c0 -27 9 -29 93 -25 28 1 37
-2 37 -14 0 -13 -16 -16 -92 -17 -51 -1 -81 -4 -65 -6 15 -2 27 -9 27 -15 0
-7 -27 -8 -77 -4 -43 3 -166 8 -273 11 -107 3 -260 8 -340 11 -80 3 -192 7
-250 8 -159 4 -248 11 -256 19 -4 4 33 8 82 9 75 2 79 2 27 5 -45 3 -63 8 -63
18 0 7 12 16 28 18 19 3 14 4 -15 6 -31 1 -43 5 -43 16 0 14 24 15 193 9 105
-3 198 -7 205 -10z m990 -24 c57 0 72 -3 72 -15 0 -13 -21 -15 -130 -15 -102
0 -130 3 -130 13 0 24 14 29 65 23 28 -3 83 -6 123 -6z m-2283 -10 c7 -12 -82
-12 -165 0 -48 6 -42 7 52 9 62 0 109 -3 113 -9z m2631 -3 c19 -19 -20 -25
-133 -20 -91 4 -123 9 -123 19 0 9 29 12 124 11 69 -1 128 -6 132 -10z m-2426
-7 c0 -6 -36 -10 -89 -10 -50 0 -93 5 -96 10 -4 6 28 10 89 10 57 0 96 -4 96
-10z m2760 -5 c0 -13 -22 -15 -157 -13 -114 2 -157 6 -161 16 -3 9 33 12 157
12 138 0 161 -2 161 -15z m220 -10 c0 -12 -14 -15 -69 -15 -39 0 -73 5 -76 10
-3 6 -17 7 -30 4 -12 -3 -26 -1 -29 5 -5 8 25 11 98 11 88 0 106 -3 106 -15z
m160 -6 c0 -10 -38 -12 -92 -3 -60 10 -44 19 27 16 36 -2 65 -8 65 -13z m265
-16 c18 -13 10 -13 -65 -7 -47 3 -94 8 -105 9 -11 2 -23 4 -27 4 -5 1 -8 6 -8
12 0 15 180 0 205 -18z m-3147 -10 c-10 -12 -9 -14 3 -13 28 4 38 0 33 -14 -4
-9 5 -16 28 -20 39 -7 67 -41 42 -50 -32 -12 -117 -1 -152 20 -2 1 4 15 14 31
l18 28 -23 -20 -22 -19 3 29 c3 31 33 56 55 48 11 -4 11 -8 1 -20z m1961 21
c44 -5 61 -11 61 -21 0 -13 -20 -14 -132 -8 -73 4 -135 9 -137 11 -1 1 0 7 4
13 7 12 110 14 204 5z m301 -18 c0 -21 -215 -23 -223 -1 -6 13 9 15 108 15 91
0 115 -3 115 -14z m252 4 c36 0 48 -4 48 -15 0 -17 -56 -19 -197 -8 -64 5 -83
9 -83 21 0 13 14 14 92 8 50 -3 113 -6 140 -6z m267 -16 c14 -13 -30 -23 -84
-18 -71 7 -88 11 -82 21 5 9 158 6 166 -3z m260 -5 c104 -1 11 -17 -112 -18
-99 -1 -116 1 -121 15 -6 16 2 16 85 11 51 -4 117 -7 148 -8z m-4439 -24 c0
-8 5 -17 11 -21 7 -4 9 0 5 14 -5 15 -1 21 16 26 40 10 54 7 55 -14 1 -15 -4
-20 -24 -20 -14 0 -41 -13 -60 -30 -18 -16 -39 -30 -46 -30 -12 0 -63 59 -55
64 1 2 21 10 43 18 43 17 55 15 55 -7z m3260 15 c0 -6 -45 -10 -115 -10 -70 0
-115 4 -115 10 0 6 45 10 115 10 70 0 115 -4 115 -10z m300 -10 c0 -6 -51 -10
-134 -10 -79 0 -137 4 -141 10 -4 6 43 10 134 10 87 0 141 -4 141 -10z m181 0
c29 0 49 -5 49 -11 0 -16 -196 -7 -212 10 -11 11 -3 13 51 7 35 -3 86 -6 112
-6z m278 -16 c2 -2 -17 -5 -42 -5 -123 -4 -177 0 -177 12 0 8 31 9 107 5 59
-4 110 -9 112 -12z m-3796 -8 c9 -7 17 -18 17 -25 0 -6 6 -11 14 -11 14 0 16
-23 3 -36 -12 -13 -8 -22 14 -27 12 -3 18 -10 14 -17 -4 -6 5 -22 20 -36 32
-30 24 -45 -26 -47 -30 -2 -34 1 -31 22 2 19 -1 21 -11 13 -10 -9 -22 -5 -50
14 l-37 25 26 35 27 35 -26 -6 c-28 -7 -47 15 -47 54 0 18 6 21 38 21 20 0 45
-7 55 -14z m918 -8 c12 -22 -15 -31 -59 -19 -36 11 -37 11 -53 11 -5 0 -7 5
-4 11 4 6 12 8 19 6 6 -2 20 -1 31 3 31 12 56 7 66 -12z m3114 12 c56 -7 53
-7 -42 -9 -59 0 -104 3 -108 9 -7 12 59 12 150 0z m-4130 -64 c7 -30 10 -57 7
-60 -12 -12 -22 -5 -22 15 0 16 -4 19 -21 14 -30 -10 -49 20 -35 56 8 23 40
42 55 32 2 -1 9 -27 16 -57z m4309 56 c3 -5 -15 -9 -39 -11 -24 -1 -46 3 -50
9 -4 6 10 10 39 10 25 0 47 -4 50 -8z m-3648 -26 c18 -18 3 -29 -29 -22 -12 3
-16 3 -9 0 18 -9 4 -24 -23 -24 -23 0 -23 1 -9 30 17 33 46 39 70 16z m-2821
-6 c3 -5 0 -10 -7 -10 -7 0 -23 -3 -36 -6 -18 -5 -21 -3 -16 10 7 18 49 22 59
6z m1555 -20 c11 -7 11 -10 2 -10 -7 0 -11 -4 -8 -9 8 -13 -14 -19 -52 -13
-32 4 -32 5 -16 23 19 21 50 24 74 9z m1120 -19 c0 -4 -15 -8 -32 -9 -30 -2
-32 -1 -15 12 18 14 47 12 47 -3z m-595 -11 c-3 -5 -23 -9 -43 -9 l-37 2 35 7
c52 11 52 11 45 0z m-2230 -20 c-28 -12 -37 -12 -30 0 3 6 16 10 28 9 21 0 21
-1 2 -9z m55 -11 c0 -12 -8 -23 -20 -26 -11 -3 -20 -11 -20 -18 0 -7 -6 -16
-12 -18 -8 -3 -6 -6 5 -6 9 -1 17 6 17 14 0 8 5 15 11 15 7 0 8 -11 4 -31 -4
-17 -7 -46 -7 -65 0 -19 -4 -37 -10 -40 -14 -9 -21 2 -12 18 16 25 10 47 -15
60 -29 15 -41 58 -15 58 8 0 13 4 10 9 -6 9 41 50 57 51 4 0 7 -9 7 -21z
m2050 17 c0 -3 -4 -8 -10 -11 -5 -3 -10 -1 -10 4 0 6 5 11 10 11 6 0 10 -2 10
-4z m-2006 -18 c8 13 50 6 54 -8 5 -14 23 -13 20 1 -6 24 22 19 28 -5 4 -19
-1 -34 -20 -58 -15 -18 -30 -38 -34 -43 -5 -6 -7 -15 -5 -21 2 -6 -19 -30 -47
-54 -45 -38 -64 -70 -41 -70 11 0 1 -53 -12 -61 -11 -8 -47 0 -47 10 0 4 6 15
14 26 19 28 46 122 46 162 0 32 14 45 22 21 3 -7 7 -6 11 5 4 11 1 17 -8 17
-19 0 -19 9 2 32 15 17 15 18 0 18 -19 0 -20 2 -11 25 5 12 9 13 14 5 5 -8 10
-9 14 -2z m1746 8 c0 -2 3 -12 7 -22 4 -11 3 -15 -5 -10 -6 3 -13 2 -17 -4 -8
-13 -55 -13 -55 -1 0 16 31 41 51 41 10 0 19 -2 19 -4z m815 -6 c-3 -5 1 -10
10 -10 8 0 18 -7 21 -15 4 -8 13 -15 22 -15 8 0 13 -3 9 -6 -9 -9 16 -33 28
-26 6 3 4 -2 -4 -11 -9 -11 -28 -17 -56 -17 -39 0 -45 4 -64 36 -24 40 -26 60
-8 67 22 9 48 7 42 -3z m465 -25 c0 -30 -5 -31 -36 -6 -22 17 -23 20 -7 24 36
9 43 7 43 -18z m-1433 -18 c9 -10 15 -77 7 -94 -7 -17 -9 -26 -12 -85 -2 -29
-32 -41 -32 -13 0 8 -4 15 -8 15 -5 0 -7 15 -5 33 2 17 0 26 -3 20 -10 -23
-31 -14 -37 15 -3 17 0 30 9 35 8 4 14 23 14 41 0 18 3 36 7 39 6 7 52 2 60
-6z m-2797 -45 c0 -16 -52 -62 -62 -56 -7 5 1 18 22 36 37 30 40 32 40 20z
m314 -67 c-4 -8 -15 -15 -26 -15 -17 0 -18 3 -8 15 7 8 19 15 26 15 8 0 11 -6
8 -15z m1180 -20 c-9 -14 -25 -30 -36 -36 -10 -5 -16 -14 -13 -19 3 -5 1 -11
-4 -14 -13 -8 -20 28 -9 48 7 13 47 37 76 45 1 1 -5 -10 -14 -24z m676 -35 c0
-5 -14 -10 -31 -10 -17 0 -28 4 -24 10 3 6 17 10 31 10 13 0 24 -4 24 -10z
m-690 -44 c0 -2 -17 -16 -37 -31 l-38 -27 33 31 c30 29 42 37 42 27z m67 -3
c-13 -3 -18 -13 -16 -31 1 -15 -3 -38 -9 -52 -6 -14 -13 -37 -16 -52 -6 -25
-9 -26 -53 -22 -26 3 -49 7 -52 10 -21 21 111 156 149 153 10 -1 9 -3 -3 -6z
m3053 -107 c0 -11 -19 -15 -25 -6 -3 5 1 10 9 10 9 0 16 -2 16 -4z"/>
<path d="M7680 2820 c0 -5 5 -10 10 -10 6 0 10 5 10 10 0 6 -4 10 -10 10 -5 0
-10 -4 -10 -10z"/>
<path d="M8030 1800 c0 -5 5 -10 11 -10 5 0 7 5 4 10 -3 6 -8 10 -11 10 -2 0
-4 -4 -4 -10z"/>
<path d="M7638 1693 c-13 -3 -18 -14 -17 -36 1 -18 3 -24 6 -14 2 9 12 17 20
17 9 0 13 3 10 7 -4 3 -2 12 4 20 12 13 8 14 -23 6z"/>
<path d="M6970 1511 c-24 -7 -24 -8 6 -12 24 -4 31 -2 27 8 -3 7 -6 13 -7 12
0 -1 -12 -4 -26 -8z"/>
<path d="M7615 1490 c-3 -5 1 -10 10 -10 9 0 13 5 10 10 -3 6 -8 10 -10 10 -2
0 -7 -4 -10 -10z"/>
<path d="M7477 1470 c5 -18 0 -20 -59 -20 -35 0 -69 5 -75 11 -7 7 -13 7 -17
1 -3 -6 -3 -13 1 -15 5 -3 150 -7 323 -10 173 -3 302 -3 285 0 -16 3 -33 10
-37 16 -6 9 -8 8 -8 -2 0 -12 -27 -13 -162 -8 -90 4 -180 7 -200 7 -43 0 -54
25 -15 33 16 3 14 5 -10 6 -26 1 -30 -2 -26 -19z"/>
<path d="M7090 1473 c0 -6 -10 -14 -22 -16 -13 -2 24 -4 82 -4 82 1 88 2 30 4
-43 3 -78 9 -82 16 -6 9 -8 9 -8 0z"/>
<path d="M7688 1473 c6 -2 18 -2 25 0 6 3 1 5 -13 5 -14 0 -19 -2 -12 -5z"/>
<path d="M7858 1473 c7 -3 16 -2 19 1 4 3 -2 6 -13 5 -11 0 -14 -3 -6 -6z"/>
<path d="M7978 1473 c7 -3 16 -2 19 1 4 3 -2 6 -13 5 -11 0 -14 -3 -6 -6z"/>
</g>
</svg>
